<?xml version="1.0" encoding="UTF-8" standalone="no"?><svg xmlns="http://www.w3.org/2000/svg" xmlns:xlink="http://www.w3.org/1999/xlink" contentStyleType="text/css" height="2130px" preserveAspectRatio="none" style="width:1518px;height:2130px;background:#FFFFFF;" version="1.1" viewBox="0 0 1518 2130" width="1518px" zoomAndPan="magnify"><defs/><g><rect fill="#C2F0FF" height="1772.3707" style="stroke:#FF0000;stroke-width:1.2;" width="12" x="176.4" y="61.8762"/><rect fill="#C2F0FF" height="1754.1047" style="stroke:#FF0000;stroke-width:1.2;" width="12" x="982.8" y="244.4063"/><rect fill="#C2F0FF" height="1998.3668" style="stroke:#FF0000;stroke-width:1.2;" width="12" x="1431.6" y="61.8762"/><line style="stroke:#FF0000;stroke-width:0.6;stroke-dasharray:5.0,5.0;" x1="57.6" x2="57.6" y1="49.8762" y2="2081.843"/><line style="stroke:#FF0000;stroke-width:0.6;stroke-dasharray:5.0,5.0;" x1="182.4" x2="182.4" y1="49.8762" y2="2081.843"/><line style="stroke:#FF0000;stroke-width:0.6;stroke-dasharray:5.0,5.0;" x1="343.2" x2="343.2" y1="49.8762" y2="2081.843"/><line style="stroke:#FF0000;stroke-width:0.6;stroke-dasharray:5.0,5.0;" x1="463.2" x2="463.2" y1="49.8762" y2="2081.843"/><line style="stroke:#FF0000;stroke-width:0.6;stroke-dasharray:5.0,5.0;" x1="609.6" x2="609.6" y1="49.8762" y2="2081.843"/><line style="stroke:#FF0000;stroke-width:0.6;stroke-dasharray:5.0,5.0;" x1="988.8" x2="988.8" y1="49.8762" y2="2081.843"/><line style="stroke:#FF0000;stroke-width:0.6;stroke-dasharray:5.0,5.0;" x1="1244.4" x2="1244.4" y1="49.8762" y2="2081.843"/><line style="stroke:#FF0000;stroke-width:0.6;stroke-dasharray:5.0,5.0;" x1="1437.6" x2="1437.6" y1="49.8762" y2="2081.843"/><rect fill="#C2F0FF" height="37.8762" rx="3" ry="3" style="stroke:#FF0000;stroke-width:0.6;" width="103.2" x="6" y="10.8"/><text fill="#FF0000" font-family="Consolas" font-size="18" font-weight="bold" lengthAdjust="spacing" textLength="86.4" x="14.4" y="35.6443">MainClass</text><rect fill="#C2F0FF" height="37.8762" rx="3" ry="3" style="stroke:#FF0000;stroke-width:0.6;" width="103.2" x="6" y="2080.643"/><text fill="#FF0000" font-family="Consolas" font-size="18" font-weight="bold" lengthAdjust="spacing" textLength="86.4" x="14.4" y="2105.4873">MainClass</text><rect fill="#C2F0FF" height="37.8762" rx="3" ry="3" style="stroke:#FF0000;stroke-width:0.6;" width="122.4" x="121.2" y="10.8"/><text fill="#FF0000" font-family="Consolas" font-size="18" font-weight="bold" lengthAdjust="spacing" textLength="105.6" x="129.6" y="35.6443">InputThread</text><rect fill="#C2F0FF" height="37.8762" rx="3" ry="3" style="stroke:#FF0000;stroke-width:0.6;" width="122.4" x="121.2" y="2080.643"/><text fill="#FF0000" font-family="Consolas" font-size="18" font-weight="bold" lengthAdjust="spacing" textLength="105.6" x="129.6" y="2105.4873">InputThread</text><rect fill="#C2F0FF" height="37.8762" rx="3" ry="3" style="stroke:#FF0000;stroke-width:0.6;" width="103.2" x="291.6" y="10.8"/><text fill="#FF0000" font-family="Consolas" font-size="18" font-weight="bold" lengthAdjust="spacing" textLength="86.4" x="300" y="35.6443">MyRequest</text><rect fill="#C2F0FF" height="37.8762" rx="3" ry="3" style="stroke:#FF0000;stroke-width:0.6;" width="103.2" x="291.6" y="2080.643"/><text fill="#FF0000" font-family="Consolas" font-size="18" font-weight="bold" lengthAdjust="spacing" textLength="86.4" x="300" y="2105.4873">MyRequest</text><rect fill="#C2F0FF" height="37.8762" rx="3" ry="3" style="stroke:#FF0000;stroke-width:0.6;" width="112.8" x="406.8" y="10.8"/><text fill="#FF0000" font-family="Consolas" font-size="18" font-weight="bold" lengthAdjust="spacing" textLength="96" x="415.2" y="35.6443">Controller</text><rect fill="#C2F0FF" height="37.8762" rx="3" ry="3" style="stroke:#FF0000;stroke-width:0.6;" width="112.8" x="406.8" y="2080.643"/><text fill="#FF0000" font-family="Consolas" font-size="18" font-weight="bold" lengthAdjust="spacing" textLength="96" x="415.2" y="2105.4873">Controller</text><rect fill="#C2F0FF" height="37.8762" style="stroke:#FF0000;stroke-width:0.6;" width="122.4" x="550.8" y="6"/><rect fill="#C2F0FF" height="37.8762" style="stroke:#FF0000;stroke-width:0.6;" width="122.4" x="546" y="10.8"/><text fill="#FF0000" font-family="Consolas" font-size="18" font-weight="bold" lengthAdjust="spacing" textLength="105.6" x="554.4" y="35.6443">RequestPool</text><rect fill="#C2F0FF" height="37.8762" style="stroke:#FF0000;stroke-width:0.6;" width="122.4" x="550.8" y="2080.643"/><rect fill="#C2F0FF" height="37.8762" style="stroke:#FF0000;stroke-width:0.6;" width="122.4" x="546" y="2085.443"/><text fill="#FF0000" font-family="Consolas" font-size="18" font-weight="bold" lengthAdjust="spacing" textLength="105.6" x="554.4" y="2110.2873">RequestPool</text><rect fill="#C2F0FF" height="37.8762" style="stroke:#FF0000;stroke-width:0.6;" width="93.6" x="944.4" y="6"/><rect fill="#C2F0FF" height="37.8762" style="stroke:#FF0000;stroke-width:0.6;" width="93.6" x="939.6" y="10.8"/><text fill="#FF0000" font-family="Consolas" font-size="18" font-weight="bold" lengthAdjust="spacing" textLength="76.8" x="948" y="35.6443">Elevator</text><rect fill="#C2F0FF" height="37.8762" style="stroke:#FF0000;stroke-width:0.6;" width="93.6" x="944.4" y="2080.643"/><rect fill="#C2F0FF" height="37.8762" style="stroke:#FF0000;stroke-width:0.6;" width="93.6" x="939.6" y="2085.443"/><text fill="#FF0000" font-family="Consolas" font-size="18" font-weight="bold" lengthAdjust="spacing" textLength="76.8" x="948" y="2110.2873">Elevator</text><rect fill="#C2F0FF" height="37.8762" style="stroke:#FF0000;stroke-width:0.6;" width="141.6" x="1176" y="6"/><rect fill="#C2F0FF" height="37.8762" style="stroke:#FF0000;stroke-width:0.6;" width="141.6" x="1171.2" y="10.8"/><text fill="#FF0000" font-family="Consolas" font-size="18" font-weight="bold" lengthAdjust="spacing" textLength="124.8" x="1179.6" y="35.6443">DecisionMaker</text><rect fill="#C2F0FF" height="37.8762" style="stroke:#FF0000;stroke-width:0.6;" width="141.6" x="1176" y="2080.643"/><rect fill="#C2F0FF" height="37.8762" style="stroke:#FF0000;stroke-width:0.6;" width="141.6" x="1171.2" y="2085.443"/><text fill="#FF0000" font-family="Consolas" font-size="18" font-weight="bold" lengthAdjust="spacing" textLength="124.8" x="1179.6" y="2110.2873">DecisionMaker</text><rect fill="#C2F0FF" height="37.8762" rx="3" ry="3" style="stroke:#FF0000;stroke-width:0.6;" width="132" x="1371.6" y="10.8"/><text fill="#FF0000" font-family="Consolas" font-size="18" font-weight="bold" lengthAdjust="spacing" textLength="115.2" x="1380" y="35.6443">OutputThread</text><rect fill="#C2F0FF" height="37.8762" rx="3" ry="3" style="stroke:#FF0000;stroke-width:0.6;" width="132" x="1371.6" y="2080.643"/><text fill="#FF0000" font-family="Consolas" font-size="18" font-weight="bold" lengthAdjust="spacing" textLength="115.2" x="1380" y="2105.4873">OutputThread</text><rect fill="#C2F0FF" height="1772.3707" style="stroke:#FF0000;stroke-width:1.2;" width="12" x="176.4" y="61.8762"/><rect fill="#C2F0FF" height="1754.1047" style="stroke:#FF0000;stroke-width:1.2;" width="12" x="982.8" y="244.4063"/><rect fill="#C2F0FF" height="1998.3668" style="stroke:#FF0000;stroke-width:1.2;" width="12" x="1431.6" y="61.8762"/><rect fill="#EEEEEE" height="3.6" style="stroke:#EEEEEE;stroke-width:1.2;" width="1509.6" x="0" y="86.6092"/><line style="stroke:#000000;stroke-width:1.2;" x1="0" x2="1509.6" y1="86.6092" y2="86.6092"/><line style="stroke:#000000;stroke-width:1.2;" x1="0" x2="1509.6" y1="90.2092" y2="90.2092"/><rect fill="#EEEEEE" height="27.866" style="stroke:#000000;stroke-width:2.4;" width="109.2" x="700.2" y="73.8762"/><text fill="#000000" font-family="Consolas" font-size="15.6" font-weight="bold" lengthAdjust="spacing" textLength="84" x="707.4" y="92.9279">Initialize</text><polygon fill="#FF0000" points="162,134.4082,174,139.2082,162,144.0082,166.8,139.2082" style="stroke:#FF0000;stroke-width:1.2;"/><line style="stroke:#FF0000;stroke-width:1.2;" x1="57.6" x2="169.2" y1="139.2082" y2="139.2082"/><text fill="#000000" font-family="Consolas" font-size="15.6" lengthAdjust="spacing" textLength="42" x="66" y="132.7939">start</text><polygon fill="#FF0000" points="448.8,169.4742,460.8,174.2742,448.8,179.0742,453.6,174.2742" style="stroke:#FF0000;stroke-width:1.2;"/><line style="stroke:#FF0000;stroke-width:1.2;" x1="57.6" x2="456" y1="174.2742" y2="174.2742"/><text fill="#000000" font-family="Consolas" font-size="15.6" lengthAdjust="spacing" textLength="25.2" x="66" y="167.86">new</text><polygon fill="#FF0000" points="1417.2,204.5402,1429.2,209.3402,1417.2,214.1402,1422,209.3402" style="stroke:#FF0000;stroke-width:1.2;"/><line style="stroke:#FF0000;stroke-width:1.2;" x1="57.6" x2="1424.4" y1="209.3402" y2="209.3402"/><text fill="#000000" font-family="Consolas" font-size="15.6" lengthAdjust="spacing" textLength="84" x="66" y="202.926">initialize</text><polygon fill="#FF0000" points="595.2,239.6063,607.2,244.4063,595.2,249.2062,600,244.4063" style="stroke:#FF0000;stroke-width:1.2;"/><line style="stroke:#FF0000;stroke-width:1.2;" x1="463.2" x2="602.4" y1="244.4063" y2="244.4063"/><text fill="#000000" font-family="Consolas" font-size="15.6" lengthAdjust="spacing" textLength="25.2" x="471.6" y="237.992">new</text><polygon fill="#FF0000" points="968.4,274.6723,980.4,279.4723,968.4,284.2723,973.2,279.4723" style="stroke:#FF0000;stroke-width:1.2;"/><line style="stroke:#FF0000;stroke-width:1.2;" x1="463.2" x2="975.6" y1="279.4723" y2="279.4723"/><text fill="#000000" font-family="Consolas" font-size="15.6" lengthAdjust="spacing" textLength="92.4" x="471.6" y="273.058">new &amp; start</text><polygon fill="#FF0000" points="1230,309.7383,1242,314.5383,1230,319.3383,1234.8,314.5383" style="stroke:#FF0000;stroke-width:1.2;"/><line style="stroke:#FF0000;stroke-width:1.2;" x1="463.2" x2="1237.2" y1="314.5383" y2="314.5383"/><text fill="#000000" font-family="Consolas" font-size="15.6" lengthAdjust="spacing" textLength="25.2" x="471.6" y="308.124">new</text><rect fill="#EEEEEE" height="3.6" style="stroke:#EEEEEE;stroke-width:1.2;" width="1509.6" x="0" y="348.8713"/><line style="stroke:#000000;stroke-width:1.2;" x1="0" x2="1509.6" y1="348.8713" y2="348.8713"/><line style="stroke:#000000;stroke-width:1.2;" x1="0" x2="1509.6" y1="352.4713" y2="352.4713"/><rect fill="#EEEEEE" height="27.866" style="stroke:#000000;stroke-width:2.4;" width="142.8" x="683.4" y="336.1383"/><text fill="#000000" font-family="Consolas" font-size="15.6" font-weight="bold" lengthAdjust="spacing" textLength="42" x="690.6" y="355.19">Add "</text><text fill="#000000" font-family="Consolas" font-size="15.6" font-weight="bold" lengthAdjust="spacing" textLength="67.2" x="732.6" y="355.19">Elevator</text><text fill="#000000" font-family="Consolas" font-size="15.6" font-weight="bold" lengthAdjust="spacing" textLength="8.4" x="799.8" y="355.19">"</text><polygon fill="#FF0000" points="448.8,396.6703,460.8,401.4703,448.8,406.2703,453.6,401.4703" style="stroke:#FF0000;stroke-width:1.2;"/><line style="stroke:#FF0000;stroke-width:1.2;" x1="188.4" x2="456" y1="401.4703" y2="401.4703"/><text fill="#000000" font-family="Consolas" font-size="15.6" lengthAdjust="spacing" textLength="42" x="196.8" y="395.0561">add "</text><text fill="#000000" font-family="Consolas" font-size="15.6" font-weight="bold" lengthAdjust="spacing" textLength="67.2" x="238.8" y="395.0561">Elevator</text><text fill="#000000" font-family="Consolas" font-size="15.6" lengthAdjust="spacing" textLength="67.2" x="306" y="395.0561">"Request</text><polygon fill="#FF0000" points="595.2,431.7363,607.2,436.5363,595.2,441.3363,600,436.5363" style="stroke:#FF0000;stroke-width:1.2;"/><line style="stroke:#FF0000;stroke-width:1.2;" x1="463.2" x2="602.4" y1="436.5363" y2="436.5363"/><text fill="#000000" font-family="Consolas" font-size="15.6" lengthAdjust="spacing" textLength="42" x="471.6" y="430.1221">add "</text><text fill="#000000" font-family="Consolas" font-size="15.6" font-weight="bold" lengthAdjust="spacing" textLength="67.2" x="513.6" y="430.1221">Elevator</text><text fill="#000000" font-family="Consolas" font-size="15.6" lengthAdjust="spacing" textLength="8.4" x="580.8" y="430.1221">"</text><rect fill="#EEEEEE" height="3.6" style="stroke:#EEEEEE;stroke-width:1.2;" width="1509.6" x="0" y="470.8693"/><line style="stroke:#000000;stroke-width:1.2;" x1="0" x2="1509.6" y1="470.8693" y2="470.8693"/><line style="stroke:#000000;stroke-width:1.2;" x1="0" x2="1509.6" y1="474.4693" y2="474.4693"/><rect fill="#EEEEEE" height="27.866" style="stroke:#000000;stroke-width:2.4;" width="168" x="670.8" y="458.1363"/><text fill="#000000" font-family="Consolas" font-size="15.6" font-weight="bold" lengthAdjust="spacing" textLength="142.8" x="678" y="477.1881">Add PersonRequest</text><polygon fill="#FF0000" points="328.8,518.6684,340.8,523.4684,328.8,528.2684,333.6,523.4684" style="stroke:#FF0000;stroke-width:1.2;"/><line style="stroke:#FF0000;stroke-width:1.2;" x1="188.4" x2="336" y1="523.4684" y2="523.4684"/><text fill="#000000" font-family="Consolas" font-size="15.6" lengthAdjust="spacing" textLength="42" x="196.8" y="517.0541">get "</text><text fill="#000000" font-family="Consolas" font-size="15.6" font-weight="bold" lengthAdjust="spacing" textLength="75.6" x="238.8" y="517.0541">MyRequest</text><text fill="#000000" font-family="Consolas" font-size="15.6" lengthAdjust="spacing" textLength="8.4" x="314.4" y="517.0541">"</text><polygon fill="#FF0000" points="201.6,553.7344,189.6,558.5344,201.6,563.3344,196.8,558.5344" style="stroke:#FF0000;stroke-width:1.2;"/><line style="stroke:#FF0000;stroke-width:1.2;stroke-dasharray:2.0,2.0;" x1="194.4" x2="342" y1="558.5344" y2="558.5344"/><text fill="#000000" font-family="Consolas" font-size="15.6" lengthAdjust="spacing" textLength="42" x="208.8" y="552.1201">new "</text><text fill="#000000" font-family="Consolas" font-size="15.6" font-weight="bold" lengthAdjust="spacing" textLength="75.6" x="250.8" y="552.1201">MyRequest</text><text fill="#000000" font-family="Consolas" font-size="15.6" lengthAdjust="spacing" textLength="8.4" x="326.4" y="552.1201">"</text><polygon fill="#FF0000" points="448.8,588.8004,460.8,593.6004,448.8,598.4004,453.6,593.6004" style="stroke:#FF0000;stroke-width:1.2;"/><line style="stroke:#FF0000;stroke-width:1.2;" x1="188.4" x2="456" y1="593.6004" y2="593.6004"/><text fill="#000000" font-family="Consolas" font-size="15.6" lengthAdjust="spacing" textLength="142.8" x="196.8" y="587.1861">add PersonRequest</text><polygon fill="#FF0000" points="595.2,623.8664,607.2,628.6664,595.2,633.4664,600,628.6664" style="stroke:#FF0000;stroke-width:1.2;"/><line style="stroke:#FF0000;stroke-width:1.2;" x1="463.2" x2="602.4" y1="628.6664" y2="628.6664"/><text fill="#000000" font-family="Consolas" font-size="15.6" lengthAdjust="spacing" textLength="84" x="471.6" y="622.2521">add Person</text><line style="stroke:#FF0000;stroke-width:1.2;" x1="609.6" x2="660" y1="663.7324" y2="663.7324"/><line style="stroke:#FF0000;stroke-width:1.2;" x1="660" x2="660" y1="663.7324" y2="679.3324"/><line style="stroke:#FF0000;stroke-width:1.2;" x1="610.8" x2="660" y1="679.3324" y2="679.3324"/><polygon fill="#FF0000" points="622.8,674.5324,610.8,679.3324,622.8,684.1324,618,679.3324" style="stroke:#FF0000;stroke-width:1.2;"/><text fill="#000000" font-family="Consolas" font-size="15.6" lengthAdjust="spacing" textLength="92.4" x="618" y="657.3182">notifyAll "</text><text fill="#000000" font-family="Consolas" font-size="15.6" font-weight="bold" lengthAdjust="spacing" textLength="67.2" x="710.4" y="657.3182">Elevator</text><text fill="#000000" font-family="Consolas" font-size="15.6" lengthAdjust="spacing" textLength="8.4" x="777.6" y="657.3182">"</text><rect fill="#EEEEEE" height="3.6" style="stroke:#EEEEEE;stroke-width:1.2;" width="1509.6" x="0" y="713.6654"/><line style="stroke:#000000;stroke-width:1.2;" x1="0" x2="1509.6" y1="713.6654" y2="713.6654"/><line style="stroke:#000000;stroke-width:1.2;" x1="0" x2="1509.6" y1="717.2654" y2="717.2654"/><rect fill="#EEEEEE" height="27.866" style="stroke:#000000;stroke-width:2.4;" width="84" x="712.8" y="700.9324"/><text fill="#000000" font-family="Consolas" font-size="15.6" font-weight="bold" lengthAdjust="spacing" textLength="58.8" x="720" y="719.9842">Running</text><polygon fill="#FF0000" points="1230,761.4645,1242,766.2645,1230,771.0645,1234.8,766.2645" style="stroke:#FF0000;stroke-width:1.2;"/><line style="stroke:#FF0000;stroke-width:1.2;" x1="994.8" x2="1237.2" y1="766.2645" y2="766.2645"/><text fill="#000000" font-family="Consolas" font-size="15.6" lengthAdjust="spacing" textLength="100.8" x="1003.2" y="759.8502">ask Decision</text><polygon fill="#FF0000" points="622.8,796.5305,610.8,801.3305,622.8,806.1305,618,801.3305" style="stroke:#FF0000;stroke-width:1.2;"/><line style="stroke:#FF0000;stroke-width:1.2;" x1="615.6" x2="1243.2" y1="801.3305" y2="801.3305"/><text fill="#000000" font-family="Consolas" font-size="15.6" lengthAdjust="spacing" textLength="117.6" x="630" y="794.9162">get AllRequest</text><line style="stroke:#FF0000;stroke-width:1.2;" x1="609.6" x2="660" y1="836.3965" y2="836.3965"/><line style="stroke:#FF0000;stroke-width:1.2;" x1="660" x2="660" y1="836.3965" y2="851.9965"/><line style="stroke:#FF0000;stroke-width:1.2;" x1="610.8" x2="660" y1="851.9965" y2="851.9965"/><polygon fill="#FF0000" points="622.8,847.1965,610.8,851.9965,622.8,856.7965,618,851.9965" style="stroke:#FF0000;stroke-width:1.2;"/><text fill="#000000" font-family="Consolas" font-size="15.6" lengthAdjust="spacing" textLength="134.4" x="618" y="829.9822">check IsNeedWait</text><polygon fill="#FF0000" points="1230,882.2625,1242,887.0625,1230,891.8625,1234.8,887.0625" style="stroke:#FF0000;stroke-width:1.2;"/><line style="stroke:#FF0000;stroke-width:1.2;stroke-dasharray:2.0,2.0;" x1="609.6" x2="1237.2" y1="887.0625" y2="887.0625"/><text fill="#000000" font-family="Consolas" font-size="15.6" lengthAdjust="spacing" textLength="84" x="618" y="880.6482">allRequest</text><line style="stroke:#FF0000;stroke-width:1.2;" x1="1244.4" x2="1294.8" y1="922.1285" y2="922.1285"/><line style="stroke:#FF0000;stroke-width:1.2;" x1="1294.8" x2="1294.8" y1="922.1285" y2="937.7285"/><line style="stroke:#FF0000;stroke-width:1.2;" x1="1245.6" x2="1294.8" y1="937.7285" y2="937.7285"/><polygon fill="#FF0000" points="1257.6,932.9285,1245.6,937.7285,1257.6,942.5285,1252.8,937.7285" style="stroke:#FF0000;stroke-width:1.2;"/><text fill="#000000" font-family="Consolas" font-size="15.6" lengthAdjust="spacing" textLength="126" x="1252.8" y="915.7143">isNeedEmptyWait</text><line style="stroke:#FF0000;stroke-width:1.2;" x1="1244.4" x2="1294.8" y1="972.7945" y2="972.7945"/><line style="stroke:#FF0000;stroke-width:1.2;" x1="1294.8" x2="1294.8" y1="972.7945" y2="988.3945"/><line style="stroke:#FF0000;stroke-width:1.2;" x1="1245.6" x2="1294.8" y1="988.3945" y2="988.3945"/><polygon fill="#FF0000" points="1257.6,983.5945,1245.6,988.3945,1257.6,993.1945,1252.8,988.3945" style="stroke:#FF0000;stroke-width:1.2;"/><text fill="#000000" font-family="Consolas" font-size="15.6" lengthAdjust="spacing" textLength="176.4" x="1252.8" y="966.3803">isNeedChangeDirection</text><line style="stroke:#FF0000;stroke-width:1.2;" x1="1244.4" x2="1294.8" y1="1023.4605" y2="1023.4605"/><line style="stroke:#FF0000;stroke-width:1.2;" x1="1294.8" x2="1294.8" y1="1023.4605" y2="1039.0605"/><line style="stroke:#FF0000;stroke-width:1.2;" x1="1245.6" x2="1294.8" y1="1039.0605" y2="1039.0605"/><polygon fill="#FF0000" points="1257.6,1034.2605,1245.6,1039.0605,1257.6,1043.8605,1252.8,1039.0605" style="stroke:#FF0000;stroke-width:1.2;"/><text fill="#000000" font-family="Consolas" font-size="15.6" lengthAdjust="spacing" textLength="109.2" x="1252.8" y="1017.0463">getNeedPickUp</text><line style="stroke:#FF0000;stroke-width:1.2;" x1="1244.4" x2="1294.8" y1="1074.1266" y2="1074.1266"/><line style="stroke:#FF0000;stroke-width:1.2;" x1="1294.8" x2="1294.8" y1="1074.1266" y2="1089.7266"/><line style="stroke:#FF0000;stroke-width:1.2;" x1="1245.6" x2="1294.8" y1="1089.7266" y2="1089.7266"/><polygon fill="#FF0000" points="1257.6,1084.9266,1245.6,1089.7266,1257.6,1094.5266,1252.8,1089.7266" style="stroke:#FF0000;stroke-width:1.2;"/><text fill="#000000" font-family="Consolas" font-size="15.6" lengthAdjust="spacing" textLength="117.6" x="1252.8" y="1067.7123">getNeedPutDown</text><polygon fill="#FF0000" points="1008,1119.9926,996,1124.7926,1008,1129.5926,1003.2,1124.7926" style="stroke:#FF0000;stroke-width:1.2;"/><line style="stroke:#FF0000;stroke-width:1.2;" x1="1000.8" x2="1243.2" y1="1124.7926" y2="1124.7926"/><text fill="#000000" font-family="Consolas" font-size="15.6" lengthAdjust="spacing" textLength="109.2" x="1015.2" y="1118.3783">make Decision</text><line style="stroke:#FF0000;stroke-width:1.2;" x1="994.8" x2="1045.2" y1="1178.1246" y2="1178.1246"/><line style="stroke:#FF0000;stroke-width:1.2;" x1="1045.2" x2="1045.2" y1="1178.1246" y2="1193.7246"/><line style="stroke:#FF0000;stroke-width:1.2;" x1="996" x2="1045.2" y1="1193.7246" y2="1193.7246"/><polygon fill="#FF0000" points="1008,1188.9246,996,1193.7246,1008,1198.5246,1003.2,1193.7246" style="stroke:#FF0000;stroke-width:1.2;"/><text fill="#000000" font-family="Consolas" font-size="15.6" lengthAdjust="spacing" textLength="75.6" x="1003.2" y="1153.4443">open Door</text><text fill="#000000" font-family="Consolas" font-size="15.6" lengthAdjust="spacing" textLength="226.8" x="1003.2" y="1171.7104">(if need up or down people)</text><polygon fill="#FF0000" points="1417.2,1223.9906,1429.2,1228.7906,1417.2,1233.5906,1422,1228.7906" style="stroke:#FF0000;stroke-width:1.2;"/><line style="stroke:#FF0000;stroke-width:1.2;" x1="994.8" x2="1424.4" y1="1228.7906" y2="1228.7906"/><text fill="#000000" font-family="Consolas" font-size="15.6" lengthAdjust="spacing" textLength="134.4" x="1003.2" y="1222.3764">output To Screen</text><line style="stroke:#FF0000;stroke-width:1.2;" x1="994.8" x2="1045.2" y1="1263.8566" y2="1263.8566"/><line style="stroke:#FF0000;stroke-width:1.2;" x1="1045.2" x2="1045.2" y1="1263.8566" y2="1279.4566"/><line style="stroke:#FF0000;stroke-width:1.2;" x1="996" x2="1045.2" y1="1279.4566" y2="1279.4566"/><polygon fill="#FF0000" points="1008,1274.6566,996,1279.4566,1008,1284.2566,1003.2,1279.4566" style="stroke:#FF0000;stroke-width:1.2;"/><text fill="#000000" font-family="Consolas" font-size="15.6" lengthAdjust="spacing" textLength="159.6" x="1003.2" y="1257.4424">remove InsidePerson</text><polygon fill="#FF0000" points="1417.2,1309.7227,1429.2,1314.5227,1417.2,1319.3227,1422,1314.5227" style="stroke:#FF0000;stroke-width:1.2;"/><line style="stroke:#FF0000;stroke-width:1.2;" x1="994.8" x2="1424.4" y1="1314.5227" y2="1314.5227"/><text fill="#000000" font-family="Consolas" font-size="15.6" lengthAdjust="spacing" textLength="134.4" x="1003.2" y="1308.1084">output To Screen</text><polygon fill="#FF0000" points="622.8,1363.0547,610.8,1367.8547,622.8,1372.6547,618,1367.8547" style="stroke:#FF0000;stroke-width:1.2;"/><line style="stroke:#FF0000;stroke-width:1.2;" x1="615.6" x2="981.6" y1="1367.8547" y2="1367.8547"/><text fill="#000000" font-family="Consolas" font-size="15.6" lengthAdjust="spacing" textLength="142.8" x="630" y="1343.1744">add PersonRequest</text><text fill="#000000" font-family="Consolas" font-size="15.6" lengthAdjust="spacing" textLength="344.4" x="630" y="1361.4404">(if the outgoing people need changeFloor)</text><polygon fill="#FF0000" points="622.8,1416.3867,610.8,1421.1867,622.8,1425.9867,618,1421.1867" style="stroke:#FF0000;stroke-width:1.2;"/><line style="stroke:#FF0000;stroke-width:1.2;" x1="615.6" x2="981.6" y1="1421.1867" y2="1421.1867"/><text fill="#000000" font-family="Consolas" font-size="15.6" lengthAdjust="spacing" textLength="168" x="630" y="1396.5064">remove PersonRequest</text><text fill="#000000" font-family="Consolas" font-size="15.6" lengthAdjust="spacing" textLength="235.2" x="630" y="1414.7725">(if needPickUp is not empty)</text><line style="stroke:#FF0000;stroke-width:1.2;" x1="994.8" x2="1045.2" y1="1456.2527" y2="1456.2527"/><line style="stroke:#FF0000;stroke-width:1.2;" x1="1045.2" x2="1045.2" y1="1456.2527" y2="1471.8527"/><line style="stroke:#FF0000;stroke-width:1.2;" x1="996" x2="1045.2" y1="1471.8527" y2="1471.8527"/><polygon fill="#FF0000" points="1008,1467.0527,996,1471.8527,1008,1476.6527,1003.2,1471.8527" style="stroke:#FF0000;stroke-width:1.2;"/><text fill="#000000" font-family="Consolas" font-size="15.6" lengthAdjust="spacing" textLength="134.4" x="1003.2" y="1449.8385">add InsidePerson</text><line style="stroke:#FF0000;stroke-width:1.2;" x1="994.8" x2="1045.2" y1="1525.1848" y2="1525.1848"/><line style="stroke:#FF0000;stroke-width:1.2;" x1="1045.2" x2="1045.2" y1="1525.1848" y2="1540.7848"/><line style="stroke:#FF0000;stroke-width:1.2;" x1="996" x2="1045.2" y1="1540.7848" y2="1540.7848"/><polygon fill="#FF0000" points="1008,1535.9848,996,1540.7848,1008,1545.5848,1003.2,1540.7848" style="stroke:#FF0000;stroke-width:1.2;"/><text fill="#000000" font-family="Consolas" font-size="15.6" lengthAdjust="spacing" textLength="84" x="1003.2" y="1500.5045">close Door</text><text fill="#000000" font-family="Consolas" font-size="15.6" lengthAdjust="spacing" textLength="117.6" x="1003.2" y="1518.7705">(if door open)</text><polygon fill="#FF0000" points="1417.2,1571.0508,1429.2,1575.8508,1417.2,1580.6508,1422,1575.8508" style="stroke:#FF0000;stroke-width:1.2;"/><line style="stroke:#FF0000;stroke-width:1.2;" x1="994.8" x2="1424.4" y1="1575.8508" y2="1575.8508"/><text fill="#000000" font-family="Consolas" font-size="15.6" lengthAdjust="spacing" textLength="134.4" x="1003.2" y="1569.4365">output To Screen</text><line style="stroke:#FF0000;stroke-width:1.2;" x1="994.8" x2="1045.2" y1="1610.9168" y2="1610.9168"/><line style="stroke:#FF0000;stroke-width:1.2;" x1="1045.2" x2="1045.2" y1="1610.9168" y2="1626.5168"/><line style="stroke:#FF0000;stroke-width:1.2;" x1="996" x2="1045.2" y1="1626.5168" y2="1626.5168"/><polygon fill="#FF0000" points="1008,1621.7168,996,1626.5168,1008,1631.3168,1003.2,1626.5168" style="stroke:#FF0000;stroke-width:1.2;"/><text fill="#000000" font-family="Consolas" font-size="15.6" lengthAdjust="spacing" textLength="33.6" x="1003.2" y="1604.5025">move</text><polygon fill="#FF0000" points="1417.2,1656.7828,1429.2,1661.5828,1417.2,1666.3828,1422,1661.5828" style="stroke:#FF0000;stroke-width:1.2;"/><line style="stroke:#FF0000;stroke-width:1.2;" x1="994.8" x2="1424.4" y1="1661.5828" y2="1661.5828"/><text fill="#000000" font-family="Consolas" font-size="15.6" lengthAdjust="spacing" textLength="134.4" x="1003.2" y="1655.1686">output To Screen</text><rect fill="#EEEEEE" height="3.6" style="stroke:#EEEEEE;stroke-width:1.2;" width="1509.6" x="0" y="1695.9158"/><line style="stroke:#000000;stroke-width:1.2;" x1="0" x2="1509.6" y1="1695.9158" y2="1695.9158"/><line style="stroke:#000000;stroke-width:1.2;" x1="0" x2="1509.6" y1="1699.5158" y2="1699.5158"/><rect fill="#EEEEEE" height="27.866" style="stroke:#000000;stroke-width:2.4;" width="92.4" x="708.6" y="1683.1828"/><text fill="#000000" font-family="Consolas" font-size="15.6" font-weight="bold" lengthAdjust="spacing" textLength="67.2" x="715.8" y="1702.2346">InputEnd</text><line style="stroke:#FF0000;stroke-width:1.2;" x1="188.4" x2="238.8" y1="1748.5148" y2="1748.5148"/><line style="stroke:#FF0000;stroke-width:1.2;" x1="238.8" x2="238.8" y1="1748.5148" y2="1764.1148"/><line style="stroke:#FF0000;stroke-width:1.2;" x1="189.6" x2="238.8" y1="1764.1148" y2="1764.1148"/><polygon fill="#FF0000" points="201.6,1759.3148,189.6,1764.1148,201.6,1768.9148,196.8,1764.1148" style="stroke:#FF0000;stroke-width:1.2;"/><text fill="#000000" font-family="Consolas" font-size="15.6" lengthAdjust="spacing" textLength="92.4" x="196.8" y="1742.1006">check IsEnd</text><line style="stroke:#FF0000;stroke-width:2.4;" x1="64.8" x2="76.8" y1="1793.1809" y2="1805.1809"/><line style="stroke:#FF0000;stroke-width:2.4;" x1="64.8" x2="76.8" y1="1805.1809" y2="1793.1809"/><line style="stroke:#FF0000;stroke-width:1.2;" x1="72" x2="175.2" y1="1799.1809" y2="1799.1809"/><text fill="#000000" font-family="Consolas" font-size="15.6" lengthAdjust="spacing" textLength="33.6" x="78" y="1792.7666">done</text><polygon fill="#FF0000" points="448.8,1829.4469,460.8,1834.2469,448.8,1839.0469,453.6,1834.2469" style="stroke:#FF0000;stroke-width:1.2;"/><line style="stroke:#FF0000;stroke-width:1.2;" x1="182.4" x2="456" y1="1834.2469" y2="1834.2469"/><text fill="#000000" font-family="Consolas" font-size="15.6" lengthAdjust="spacing" textLength="42" x="190.8" y="1827.8326">close</text><polygon fill="#FF0000" points="595.2,1864.5129,607.2,1869.3129,595.2,1874.1129,600,1869.3129" style="stroke:#FF0000;stroke-width:1.2;"/><line style="stroke:#FF0000;stroke-width:1.2;" x1="463.2" x2="602.4" y1="1869.3129" y2="1869.3129"/><text fill="#000000" font-family="Consolas" font-size="15.6" lengthAdjust="spacing" textLength="42" x="471.6" y="1862.8986">close</text><polygon fill="#FF0000" points="968.4,1899.5789,980.4,1904.3789,968.4,1909.1789,973.2,1904.3789" style="stroke:#FF0000;stroke-width:1.2;"/><line style="stroke:#FF0000;stroke-width:1.2;" x1="609.6" x2="975.6" y1="1904.3789" y2="1904.3789"/><text fill="#000000" font-family="Consolas" font-size="15.6" lengthAdjust="spacing" textLength="100.8" x="618" y="1897.9646">setNeedClose</text><rect fill="#EEEEEE" height="3.6" style="stroke:#EEEEEE;stroke-width:1.2;" width="1509.6" x="0" y="1938.7119"/><line style="stroke:#000000;stroke-width:1.2;" x1="0" x2="1509.6" y1="1938.7119" y2="1938.7119"/><line style="stroke:#000000;stroke-width:1.2;" x1="0" x2="1509.6" y1="1942.3119" y2="1942.3119"/><rect fill="#EEEEEE" height="27.866" style="stroke:#000000;stroke-width:2.4;" width="151.2" x="679.2" y="1925.9789"/><text fill="#000000" font-family="Consolas" font-size="15.6" font-weight="bold" lengthAdjust="spacing" textLength="8.4" x="686.4" y="1945.0307">"</text><text fill="#000000" font-family="Consolas" font-size="15.6" font-weight="bold" lengthAdjust="spacing" textLength="67.2" x="694.8" y="1945.0307">Elevator</text><text fill="#000000" font-family="Consolas" font-size="15.6" font-weight="bold" lengthAdjust="spacing" textLength="50.4" x="762" y="1945.0307">" Stop</text><line style="stroke:#FF0000;stroke-width:1.2;" x1="994.8" x2="1045.2" y1="1997.3109" y2="1997.3109"/><line style="stroke:#FF0000;stroke-width:1.2;" x1="1045.2" x2="1045.2" y1="1997.3109" y2="2012.9109"/><line style="stroke:#FF0000;stroke-width:1.2;" x1="988.8" x2="1045.2" y1="2012.9109" y2="2012.9109"/><polygon fill="#FF0000" points="1000.8,2008.1109,988.8,2012.9109,1000.8,2017.7109,996,2012.9109" style="stroke:#FF0000;stroke-width:1.2;"/><text fill="#000000" font-family="Consolas" font-size="15.6" lengthAdjust="spacing" textLength="109.2" x="1003.2" y="1990.8967">try EndThread</text><polygon fill="#FF0000" points="1423.2,2055.443,1435.2,2060.243,1423.2,2065.043,1428,2060.243" style="stroke:#FF0000;stroke-width:1.2;"/><line style="stroke:#FF0000;stroke-width:1.2;" x1="988.8" x2="1430.4" y1="2060.243" y2="2060.243"/><text fill="#000000" font-family="Consolas" font-size="15.6" lengthAdjust="spacing" textLength="75.6" x="997.2" y="2035.5627">endThread</text><text fill="#000000" font-family="Consolas" font-size="15.6" lengthAdjust="spacing" textLength="235.2" x="997.2" y="2053.8287">(if all elevator thread end)</text><!--MD5=[2f5946a8a50d930b7d302c8bed3c53ea]
@startuml
    'https://plantuml.com/sequence-diagram

skinparam defaultFontName Consolas
skinparam collectionsBorderColor Red
skinparam collectionsFontSize 15
skinparam collectionsFontColor Red
skinparam collectionsBackgroundColor Red
skinparam collectionsBackgroundColor APPLICATION

    skinparam sequence {

    ArrowColor Red
    ActorBorderColor APPLICATION
    LifeLineBorderColor Red
    LifeLineBackgroundColor APPLICATION

    ParticipantBorderColor Red
    ParticipantBackgroundColor APPLICATION
    ParticipantFontSize 15
    ParticipantFontColor Red

    }

    participant "<b>MainClass</b>"
    participant "<b>InputThread</b>"
    participant "<b>MyRequest</b>"
    participant "<b>Controller</b>"
    collections "<b>RequestPool</b>"
    collections "<b>Elevator</b>"
    collections "<b>DecisionMaker</b>"
    participant "<b>OutputThread</b>"




    == Initialize ==

    activate "<b>InputThread</b>"

    activate "<b>OutputThread</b>"

    "<b>MainClass</b>" -> "<b>InputThread</b>": start

    "<b>MainClass</b>" -> "<b>Controller</b>": new

    "<b>MainClass</b>" -> "<b>OutputThread</b>": initialize

    "<b>Controller</b>" -> "<b>RequestPool</b>": new

    activate "<b>Elevator</b>"

    "<b>Controller</b>" -> "<b>Elevator</b>": new & start

    "<b>Controller</b>" -> "<b>DecisionMaker</b>": new

    == Add "<b>Elevator</b>" ==

    "<b>InputThread</b>" -> "<b>Controller</b>": add "<b>Elevator</b>"Request

    "<b>Controller</b>" -> "<b>RequestPool</b>": add "<b>Elevator</b>"

    == Add PersonRequest ==

    "<b>InputThread</b>" -> "<b>MyRequest</b>": get "<b>MyRequest</b>"

    "<b>MyRequest</b>" - -> "<b>InputThread</b>": new "<b>MyRequest</b>"

    "<b>InputThread</b>" -> "<b>Controller</b>": add PersonRequest

    "<b>Controller</b>" -> "<b>RequestPool</b>": add Person

    "<b>RequestPool</b>" -> "<b>RequestPool</b>": notifyAll "<b>Elevator</b>"

    == Running ==

    "<b>Elevator</b>" -> "<b>DecisionMaker</b>": ask Decision

    "<b>DecisionMaker</b>" -> "<b>RequestPool</b>": get AllRequest

    "<b>RequestPool</b>" -> "<b>RequestPool</b>": check IsNeedWait

    "<b>RequestPool</b>" - -> "<b>DecisionMaker</b>": allRequest

    "<b>DecisionMaker</b>" -> "<b>DecisionMaker</b>": isNeedEmptyWait

    "<b>DecisionMaker</b>" -> "<b>DecisionMaker</b>": isNeedChangeDirection

    "<b>DecisionMaker</b>" -> "<b>DecisionMaker</b>": getNeedPickUp

    "<b>DecisionMaker</b>" -> "<b>DecisionMaker</b>": getNeedPutDown

    "<b>DecisionMaker</b>" -> "<b>Elevator</b>": make Decision

    "<b>Elevator</b>" -> "<b>Elevator</b>": open Door\n(if need up or down people)

    "<b>Elevator</b>" -> "<b>OutputThread</b>": output To Screen

    "<b>Elevator</b>" -> "<b>Elevator</b>": remove InsidePerson

    "<b>Elevator</b>" -> "<b>OutputThread</b>": output To Screen

    "<b>Elevator</b>" -> "<b>RequestPool</b>": add PersonRequest\n(if the outgoing people need changeFloor)

    "<b>Elevator</b>" -> "<b>RequestPool</b>": remove PersonRequest\n(if needPickUp is not empty)

    "<b>Elevator</b>" -> "<b>Elevator</b>": add InsidePerson

    "<b>Elevator</b>" -> "<b>Elevator</b>": close Door\n(if door open)

    "<b>Elevator</b>" -> "<b>OutputThread</b>": output To Screen

    "<b>Elevator</b>" -> "<b>Elevator</b>": move

    "<b>Elevator</b>" -> "<b>OutputThread</b>": output To Screen

    == InputEnd ==

    "<b>InputThread</b>" -> "<b>InputThread</b>": check IsEnd

    "<b>InputThread</b>" ->x "<b>MainClass</b>": done

    "<b>InputThread</b>" -> "<b>Controller</b>": close

    deactivate "<b>InputThread</b>"

    "<b>Controller</b>" -> "<b>RequestPool</b>": close

    "<b>RequestPool</b>" -> "<b>Elevator</b>": setNeedClose

    == "<b>Elevator</b>" Stop ==

    "<b>Elevator</b>" -> "<b>Elevator</b>": try EndThread

    deactivate "<b>Elevator</b>"

    "<b>Elevator</b>" -> "<b>OutputThread</b>": endThread\n(if all elevator thread end)

    deactivate "<b>OutputThread</b>"

@enduml

@startuml

skinparam defaultFontName Consolas
skinparam collectionsBorderColor Red
skinparam collectionsFontSize 15
skinparam collectionsFontColor Red
skinparam collectionsBackgroundColor Red
skinparam collectionsBackgroundColor APPLICATION

    skinparam sequence {

    ArrowColor Red
    ActorBorderColor APPLICATION
    LifeLineBorderColor Red
    LifeLineBackgroundColor APPLICATION

    ParticipantBorderColor Red
    ParticipantBackgroundColor APPLICATION
    ParticipantFontSize 15
    ParticipantFontColor Red

    }

    participant "<b>MainClass</b>"
    participant "<b>InputThread</b>"
    participant "<b>MyRequest</b>"
    participant "<b>Controller</b>"
    collections "<b>RequestPool</b>"
    collections "<b>Elevator</b>"
    collections "<b>DecisionMaker</b>"
    participant "<b>OutputThread</b>"




    == Initialize ==

    activate "<b>InputThread</b>"

    activate "<b>OutputThread</b>"

    "<b>MainClass</b>" -> "<b>InputThread</b>": start

    "<b>MainClass</b>" -> "<b>Controller</b>": new

    "<b>MainClass</b>" -> "<b>OutputThread</b>": initialize

    "<b>Controller</b>" -> "<b>RequestPool</b>": new

    activate "<b>Elevator</b>"

    "<b>Controller</b>" -> "<b>Elevator</b>": new & start

    "<b>Controller</b>" -> "<b>DecisionMaker</b>": new

    == Add "<b>Elevator</b>" ==

    "<b>InputThread</b>" -> "<b>Controller</b>": add "<b>Elevator</b>"Request

    "<b>Controller</b>" -> "<b>RequestPool</b>": add "<b>Elevator</b>"

    == Add PersonRequest ==

    "<b>InputThread</b>" -> "<b>MyRequest</b>": get "<b>MyRequest</b>"

    "<b>MyRequest</b>" - -> "<b>InputThread</b>": new "<b>MyRequest</b>"

    "<b>InputThread</b>" -> "<b>Controller</b>": add PersonRequest

    "<b>Controller</b>" -> "<b>RequestPool</b>": add Person

    "<b>RequestPool</b>" -> "<b>RequestPool</b>": notifyAll "<b>Elevator</b>"

    == Running ==

    "<b>Elevator</b>" -> "<b>DecisionMaker</b>": ask Decision

    "<b>DecisionMaker</b>" -> "<b>RequestPool</b>": get AllRequest

    "<b>RequestPool</b>" -> "<b>RequestPool</b>": check IsNeedWait

    "<b>RequestPool</b>" - -> "<b>DecisionMaker</b>": allRequest

    "<b>DecisionMaker</b>" -> "<b>DecisionMaker</b>": isNeedEmptyWait

    "<b>DecisionMaker</b>" -> "<b>DecisionMaker</b>": isNeedChangeDirection

    "<b>DecisionMaker</b>" -> "<b>DecisionMaker</b>": getNeedPickUp

    "<b>DecisionMaker</b>" -> "<b>DecisionMaker</b>": getNeedPutDown

    "<b>DecisionMaker</b>" -> "<b>Elevator</b>": make Decision

    "<b>Elevator</b>" -> "<b>Elevator</b>": open Door\n(if need up or down people)

    "<b>Elevator</b>" -> "<b>OutputThread</b>": output To Screen

    "<b>Elevator</b>" -> "<b>Elevator</b>": remove InsidePerson

    "<b>Elevator</b>" -> "<b>OutputThread</b>": output To Screen

    "<b>Elevator</b>" -> "<b>RequestPool</b>": add PersonRequest\n(if the outgoing people need changeFloor)

    "<b>Elevator</b>" -> "<b>RequestPool</b>": remove PersonRequest\n(if needPickUp is not empty)

    "<b>Elevator</b>" -> "<b>Elevator</b>": add InsidePerson

    "<b>Elevator</b>" -> "<b>Elevator</b>": close Door\n(if door open)

    "<b>Elevator</b>" -> "<b>OutputThread</b>": output To Screen

    "<b>Elevator</b>" -> "<b>Elevator</b>": move

    "<b>Elevator</b>" -> "<b>OutputThread</b>": output To Screen

    == InputEnd ==

    "<b>InputThread</b>" -> "<b>InputThread</b>": check IsEnd

    "<b>InputThread</b>" ->x "<b>MainClass</b>": done

    "<b>InputThread</b>" -> "<b>Controller</b>": close

    deactivate "<b>InputThread</b>"

    "<b>Controller</b>" -> "<b>RequestPool</b>": close

    "<b>RequestPool</b>" -> "<b>Elevator</b>": setNeedClose

    == "<b>Elevator</b>" Stop ==

    "<b>Elevator</b>" -> "<b>Elevator</b>": try EndThread

    deactivate "<b>Elevator</b>"

    "<b>Elevator</b>" -> "<b>OutputThread</b>": endThread\n(if all elevator thread end)

    deactivate "<b>OutputThread</b>"

@enduml

PlantUML version 1.2022.4(Sat Apr 09 21:29:17 CST 2022)
(GPL source distribution)
Java Runtime: OpenJDK Runtime Environment
JVM: OpenJDK 64-Bit Server VM
Default Encoding: GBK
Language: zh
Country: CN
--></g></svg>